# xmcd CD database file
# Copyright (C) 1993-1998 Ti Kan
#
# Track frame offsets:
#	150
#	13135
#	29057
#	56275
#	60345
#	78470
#	97272
#
# Disc length: 1542 seconds
#
# Revision: 1
# Processed by: cddbd v1.4b41PL1 Copyright (c) Steve Scherf et al.
# Submitted via: CDValet v3.31 - Copyright (c) 1997 Greg Leichner
#
DISCID=56060407
DTITLE=Worl-A-Girl - No Gunshot (Single)
DYEAR=1900
DGENRE=
TTITLE0=No Gunshot
TTITLE1=No Gunshot
TTITLE2=No Gunshot
TTITLE3=No Gunshot
TTITLE4=No Gunshot
TTITLE5=No Gunshot
TTITLE6=No Gunshot
EXTD=
EXTT0=
EXTT1=
EXTT2=
EXTT3=
EXTT4=
EXTT5=
EXTT6=
PLAYORDER=
